<?xml version="1.0" encoding="UTF-8"?>
<svg width="1024" height="1024" viewBox="0 0 1024 1024" xmlns="http://www.w3.org/2000/svg">
  <defs>
    <!-- Gradient definitions for metallic CPU surface -->
    <linearGradient id="cpuGradient" x1="0%" y1="0%" x2="100%" y2="100%">
      <stop offset="0%" style="stop-color:#4a4a4a;stop-opacity:1" />
      <stop offset="50%" style="stop-color:#3a3a3a;stop-opacity:1" />
      <stop offset="100%" style="stop-color:#2a2a2a;stop-opacity:1" />
    </linearGradient>
    
    <!-- Keyhole glow effect -->
    <filter id="keyholeGlow">
      <feGaussianBlur stdDeviation="8" result="coloredBlur"/>
      <feMerge> 
        <feMergeNode in="coloredBlur"/>
        <feMergeNode in="SourceGraphic"/> 
      </feMerge>
    </filter>
    
    <!-- CPU edge glow -->
    <filter id="cpuEdgeGlow">
      <feGaussianBlur stdDeviation="2" result="coloredBlur"/>
      <feMerge> 
        <feMergeNode in="coloredBlur"/>
        <feMergeNode in="SourceGraphic"/> 
      </feMerge>
    </filter>
  </defs>
  
  <!-- Transparent background for adaptive icon -->
  <rect width="1024" height="1024" fill="transparent"/>
  
  <!-- CPU chip main body - centered and sized for safe zone -->
  <rect x="200" y="200" width="624" height="624" rx="30" ry="30" 
        fill="url(#cpuGradient)" 
        stroke="#008080" 
        stroke-width="3" 
        stroke-opacity="0.6"
        filter="url(#cpuEdgeGlow)"/>
  
  <!-- CPU pins on all four sides -->
  <g fill="#c0c0c0">
    <!-- Top pins -->
    <rect x="230" y="190" width="12" height="15"/>
    <rect x="260" y="190" width="12" height="15"/>
    <rect x="290" y="190" width="12" height="15"/>
    <rect x="320" y="190" width="12" height="15"/>
    <rect x="350" y="190" width="12" height="15"/>
    <rect x="380" y="190" width="12" height="15"/>
    <rect x="410" y="190" width="12" height="15"/>
    <rect x="440" y="190" width="12" height="15"/>
    <rect x="470" y="190" width="12" height="15"/>
    <rect x="500" y="190" width="12" height="15"/>
    <rect x="530" y="190" width="12" height="15"/>
    <rect x="560" y="190" width="12" height="15"/>
    <rect x="590" y="190" width="12" height="15"/>
    <rect x="620" y="190" width="12" height="15"/>
    <rect x="650" y="190" width="12" height="15"/>
    <rect x="680" y="190" width="12" height="15"/>
    <rect x="710" y="190" width="12" height="15"/>
    <rect x="740" y="190" width="12" height="15"/>
    <rect x="770" y="190" width="12" height="15"/>
    <rect x="782" y="190" width="12" height="15"/>
    
    <!-- Bottom pins -->
    <rect x="230" y="819" width="12" height="15"/>
    <rect x="260" y="819" width="12" height="15"/>
    <rect x="290" y="819" width="12" height="15"/>
    <rect x="320" y="819" width="12" height="15"/>
    <rect x="350" y="819" width="12" height="15"/>
    <rect x="380" y="819" width="12" height="15"/>
    <rect x="410" y="819" width="12" height="15"/>
    <rect x="440" y="819" width="12" height="15"/>
    <rect x="470" y="819" width="12" height="15"/>
    <rect x="500" y="819" width="12" height="15"/>
    <rect x="530" y="819" width="12" height="15"/>
    <rect x="560" y="819" width="12" height="15"/>
    <rect x="590" y="819" width="12" height="15"/>
    <rect x="620" y="819" width="12" height="15"/>
    <rect x="650" y="819" width="12" height="15"/>
    <rect x="680" y="819" width="12" height="15"/>
    <rect x="710" y="819" width="12" height="15"/>
    <rect x="740" y="819" width="12" height="15"/>
    <rect x="770" y="819" width="12" height="15"/>
    <rect x="782" y="819" width="12" height="15"/>
    
    <!-- Left pins -->
    <rect x="175" y="230" width="15" height="12"/>
    <rect x="175" y="260" width="15" height="12"/>
    <rect x="175" y="290" width="15" height="12"/>
    <rect x="175" y="320" width="15" height="12"/>
    <rect x="175" y="350" width="15" height="12"/>
    <rect x="175" y="380" width="15" height="12"/>
    <rect x="175" y="410" width="15" height="12"/>
    <rect x="175" y="440" width="15" height="12"/>
    <rect x="175" y="470" width="15" height="12"/>
    <rect x="175" y="500" width="15" height="12"/>
    <rect x="175" y="530" width="15" height="12"/>
    <rect x="175" y="560" width="15" height="12"/>
    <rect x="175" y="590" width="15" height="12"/>
    <rect x="175" y="620" width="15" height="12"/>
    <rect x="175" y="650" width="15" height="12"/>
    <rect x="175" y="680" width="15" height="12"/>
    <rect x="175" y="710" width="15" height="12"/>
    <rect x="175" y="740" width="15" height="12"/>
    <rect x="175" y="770" width="15" height="12"/>
    <rect x="175" y="782" width="15" height="12"/>
    
    <!-- Right pins -->
    <rect x="834" y="230" width="15" height="12"/>
    <rect x="834" y="260" width="15" height="12"/>
    <rect x="834" y="290" width="15" height="12"/>
    <rect x="834" y="320" width="15" height="12"/>
    <rect x="834" y="350" width="15" height="12"/>
    <rect x="834" y="380" width="15" height="12"/>
    <rect x="834" y="410" width="15" height="12"/>
    <rect x="834" y="440" width="15" height="12"/>
    <rect x="834" y="470" width="15" height="12"/>
    <rect x="834" y="500" width="15" height="12"/>
    <rect x="834" y="530" width="15" height="12"/>
    <rect x="834" y="560" width="15" height="12"/>
    <rect x="834" y="590" width="15" height="12"/>
    <rect x="834" y="620" width="15" height="12"/>
    <rect x="834" y="650" width="15" height="12"/>
    <rect x="834" y="680" width="15" height="12"/>
    <rect x="834" y="710" width="15" height="12"/>
    <rect x="834" y="740" width="15" height="12"/>
    <rect x="834" y="770" width="15" height="12"/>
    <rect x="834" y="782" width="15" height="12"/>
  </g>
  
  <!-- Glowing keyhole symbol in center of CPU -->
  <g transform="translate(512, 512)" filter="url(#keyholeGlow)">
    <!-- Keyhole circle -->
    <circle cx="0" cy="-30" r="60" fill="#00ffff" stroke="#00ffff" stroke-width="6" opacity="0.9"/>
    
    <!-- Keyhole slot -->
    <rect x="-12" y="30" width="24" height="75" rx="12" ry="12" fill="#00ffff" stroke="#00ffff" stroke-width="3" opacity="0.9"/>
    
    <!-- Inner glow effect -->
    <circle cx="0" cy="-30" r="45" fill="#00ffff" opacity="0.3"/>
    <rect x="-9" y="30" width="18" height="60" rx="9" ry="9" fill="#00ffff" opacity="0.3"/>
  </g>
  
  <!-- CPU surface texture details -->
  <g opacity="0.3">
    <line x1="220" y1="220" x2="804" y2="220" stroke="#666" stroke-width="1"/>
    <line x1="220" y1="280" x2="804" y2="280" stroke="#666" stroke-width="1"/>
    <line x1="220" y1="340" x2="804" y2="340" stroke="#666" stroke-width="1"/>
    <line x1="220" y1="400" x2="804" y2="400" stroke="#666" stroke-width="1"/>
    <line x1="220" y1="460" x2="804" y2="460" stroke="#666" stroke-width="1"/>
    <line x1="220" y1="520" x2="804" y2="520" stroke="#666" stroke-width="1"/>
    <line x1="220" y1="580" x2="804" y2="580" stroke="#666" stroke-width="1"/>
    <line x1="220" y1="640" x2="804" y2="640" stroke="#666" stroke-width="1"/>
    <line x1="220" y1="700" x2="804" y2="700" stroke="#666" stroke-width="1"/>
    <line x1="220" y1="760" x2="804" y2="760" stroke="#666" stroke-width="1"/>
    
    <line x1="280" y1="220" x2="280" y2="804" stroke="#666" stroke-width="1"/>
    <line x1="340" y1="220" x2="340" y2="804" stroke="#666" stroke-width="1"/>
    <line x1="400" y1="220" x2="400" y2="804" stroke="#666" stroke-width="1"/>
    <line x1="460" y1="220" x2="460" y2="804" stroke="#666" stroke-width="1"/>
    <line x1="520" y1="220" x2="520" y2="804" stroke="#666" stroke-width="1"/>
    <line x1="580" y1="220" x2="580" y2="804" stroke="#666" stroke-width="1"/>
    <line x1="640" y1="220" x2="640" y2="804" stroke="#666" stroke-width="1"/>
    <line x1="700" y1="220" x2="700" y2="804" stroke="#666" stroke-width="1"/>
    <line x1="760" y1="220" x2="760" y2="804" stroke="#666" stroke-width="1"/>
  </g>
  
  <!-- Text label for reference (remove in actual icon) -->
  <text x="512" y="950" font-family="Arial, sans-serif" font-size="20" fill="#666" text-anchor="middle">
    Adaptive Icon Foreground - Convert to PNG
  </text>
</svg>