<?xml version="1.0" encoding="UTF-8"?>
<svg width="512" height="512" viewBox="0 0 512 512" xmlns="http://www.w3.org/2000/svg">
  <defs>
    <!-- Gradient definitions for glow effects -->
    <radialGradient id="cpuGradient" cx="50%" cy="50%" r="50%">
      <stop offset="0%" style="stop-color:#2E2E2E;stop-opacity:1" />
      <stop offset="70%" style="stop-color:#1A1A1A;stop-opacity:1" />
      <stop offset="100%" style="stop-color:#0A0A0A;stop-opacity:1" />
    </radialGradient>
    
    <radialGradient id="keyholeGlow" cx="50%" cy="50%" r="50%">
      <stop offset="0%" style="stop-color:#00FFD4;stop-opacity:0.8" />
      <stop offset="40%" style="stop-color:#00E5FF;stop-opacity:0.6" />
      <stop offset="80%" style="stop-color:#00FFD4;stop-opacity:0.3" />
      <stop offset="100%" style="stop-color:#00FFD4;stop-opacity:0" />
    </radialGradient>
    
    <filter id="glow">
      <feGaussianBlur stdDeviation="3" result="coloredBlur"/>
      <feMerge> 
        <feMergeNode in="coloredBlur"/>
        <feMergeNode in="SourceGraphic"/>
      </feMerge>
    </filter>
    
    <filter id="innerGlow">
      <feGaussianBlur stdDeviation="2" result="coloredBlur"/>
      <feMerge> 
        <feMergeNode in="coloredBlur"/>
        <feMergeNode in="SourceGraphic"/>
      </feMerge>
    </filter>
  </defs>
  
  <!-- Dark background -->
  <rect width="512" height="512" fill="#0A0A0A"/>
  
  <!-- Circuit board background pattern -->
  <g opacity="0.3">
    <!-- Horizontal circuit traces -->
    <line x1="0" y1="128" x2="512" y2="128" stroke="#00FFD4" stroke-width="1" opacity="0.4"/>
    <line x1="0" y1="256" x2="512" y2="256" stroke="#00FFD4" stroke-width="1" opacity="0.4"/>
    <line x1="0" y1="384" x2="512" y2="384" stroke="#00FFD4" stroke-width="1" opacity="0.4"/>
    
    <!-- Vertical circuit traces -->
    <line x1="128" y1="0" x2="128" y2="512" stroke="#00FFD4" stroke-width="1" opacity="0.4"/>
    <line x1="256" y1="0" x2="256" y2="512" stroke="#00FFD4" stroke-width="1" opacity="0.4"/>
    <line x1="384" y1="0" x2="384" y2="512" stroke="#00FFD4" stroke-width="1" opacity="0.4"/>
    
    <!-- Circuit nodes -->
    <circle cx="128" cy="128" r="3" fill="#00FFD4" opacity="0.6"/>
    <circle cx="256" cy="128" r="3" fill="#00FFD4" opacity="0.6"/>
    <circle cx="384" cy="128" r="3" fill="#00FFD4" opacity="0.6"/>
    <circle cx="128" cy="256" r="3" fill="#00FFD4" opacity="0.6"/>
    <circle cx="384" cy="256" r="3" fill="#00FFD4" opacity="0.6"/>
    <circle cx="128" cy="384" r="3" fill="#00FFD4" opacity="0.6"/>
    <circle cx="256" cy="384" r="3" fill="#00FFD4" opacity="0.6"/>
    <circle cx="384" cy="384" r="3" fill="#00FFD4" opacity="0.6"/>
  </g>
  
  <!-- CPU chip main body -->
  <g transform="translate(256,256)">
    <!-- CPU pins/connectors -->
    <!-- Top pins -->
    <g>
      <rect x="-80" y="-100" width="8" height="20" fill="#4A4A4A" rx="2"/>
      <rect x="-60" y="-100" width="8" height="20" fill="#4A4A4A" rx="2"/>
      <rect x="-40" y="-100" width="8" height="20" fill="#4A4A4A" rx="2"/>
      <rect x="-20" y="-100" width="8" height="20" fill="#4A4A4A" rx="2"/>
      <rect x="0" y="-100" width="8" height="20" fill="#4A4A4A" rx="2"/>
      <rect x="20" y="-100" width="8" height="20" fill="#4A4A4A" rx="2"/>
      <rect x="40" y="-100" width="8" height="20" fill="#4A4A4A" rx="2"/>
      <rect x="60" y="-100" width="8" height="20" fill="#4A4A4A" rx="2"/>
    </g>
    
    <!-- Bottom pins -->
    <g>
      <rect x="-80" y="80" width="8" height="20" fill="#4A4A4A" rx="2"/>
      <rect x="-60" y="80" width="8" height="20" fill="#4A4A4A" rx="2"/>
      <rect x="-40" y="80" width="8" height="20" fill="#4A4A4A" rx="2"/>
      <rect x="-20" y="80" width="8" height="20" fill="#4A4A4A" rx="2"/>
      <rect x="0" y="80" width="8" height="20" fill="#4A4A4A" rx="2"/>
      <rect x="20" y="80" width="8" height="20" fill="#4A4A4A" rx="2"/>
      <rect x="40" y="80" width="8" height="20" fill="#4A4A4A" rx="2"/>
      <rect x="60" y="80" width="8" height="20" fill="#4A4A4A" rx="2"/>
    </g>
    
    <!-- Left pins -->
    <g>
      <rect x="-100" y="-80" width="20" height="8" fill="#4A4A4A" rx="2"/>
      <rect x="-100" y="-60" width="20" height="8" fill="#4A4A4A" rx="2"/>
      <rect x="-100" y="-40" width="20" height="8" fill="#4A4A4A" rx="2"/>
      <rect x="-100" y="-20" width="20" height="8" fill="#4A4A4A" rx="2"/>
      <rect x="-100" y="0" width="20" height="8" fill="#4A4A4A" rx="2"/>
      <rect x="-100" y="20" width="20" height="8" fill="#4A4A4A" rx="2"/>
      <rect x="-100" y="40" width="20" height="8" fill="#4A4A4A" rx="2"/>
      <rect x="-100" y="60" width="20" height="8" fill="#4A4A4A" rx="2"/>
    </g>
    
    <!-- Right pins -->
    <g>
      <rect x="80" y="-80" width="20" height="8" fill="#4A4A4A" rx="2"/>
      <rect x="80" y="-60" width="20" height="8" fill="#4A4A4A" rx="2"/>
      <rect x="80" y="-40" width="20" height="8" fill="#4A4A4A" rx="2"/>
      <rect x="80" y="-20" width="20" height="8" fill="#4A4A4A" rx="2"/>
      <rect x="80" y="0" width="20" height="8" fill="#4A4A4A" rx="2"/>
      <rect x="80" y="20" width="20" height="8" fill="#4A4A4A" rx="2"/>
      <rect x="80" y="40" width="20" height="8" fill="#4A4A4A" rx="2"/>
      <rect x="80" y="60" width="20" height="8" fill="#4A4A4A" rx="2"/>
    </g>
    
    <!-- Circuit traces connecting to pins -->
    <g opacity="0.6" stroke="#00FFD4" stroke-width="1" fill="none">
      <!-- Top traces -->
      <path d="M-76,-80 L-76,-90 L-64,-90" opacity="0.7"/>
      <path d="M-56,-80 L-56,-90 L-44,-90" opacity="0.7"/>
      <path d="M-36,-80 L-36,-90 L-24,-90" opacity="0.7"/>
      <path d="M-16,-80 L-16,-90 L-4,-90" opacity="0.7"/>
      <path d="M4,-80 L4,-90 L16,-90" opacity="0.7"/>
      <path d="M24,-80 L24,-90 L36,-90" opacity="0.7"/>
      <path d="M44,-80 L44,-90 L56,-90" opacity="0.7"/>
      <path d="M64,-80 L64,-90 L76,-90" opacity="0.7"/>
      
      <!-- Similar patterns for other sides -->
      <path d="M-80,-76 L-90,-76 L-90,-64" opacity="0.7"/>
      <path d="M-80,-56 L-90,-56 L-90,-44" opacity="0.7"/>
      <path d="M-80,-36 L-90,-36 L-90,-24" opacity="0.7"/>
      <path d="M-80,-16 L-90,-16 L-90,-4" opacity="0.7"/>
    </g>
    
    <!-- CPU main body with teal outline -->
    <rect x="-80" y="-80" width="160" height="160" fill="url(#cpuGradient)" rx="8" 
          stroke="#00FFD4" stroke-width="2" opacity="0.9" filter="url(#glow)"/>
    
    <!-- CPU surface details -->
    <rect x="-70" y="-70" width="140" height="140" fill="none" stroke="#4A4A4A" stroke-width="1" rx="4" opacity="0.7"/>
    <rect x="-60" y="-60" width="120" height="120" fill="none" stroke="#4A4A4A" stroke-width="1" rx="4" opacity="0.5"/>
    
    <!-- Central keyhole symbol with glow effect -->
    <g filter="url(#innerGlow)">
      <!-- Keyhole glow background -->
      <circle cx="0" cy="-8" r="25" fill="url(#keyholeGlow)" opacity="0.4"/>
      
      <!-- Keyhole circle (top part) -->
      <circle cx="0" cy="-8" r="12" fill="#00FFD4" opacity="0.9"/>
      <circle cx="0" cy="-8" r="8" fill="#0A0A0A" opacity="1"/>
      
      <!-- Keyhole slot (bottom part) -->
      <rect x="-3" y="4" width="6" height="16" fill="#00FFD4" rx="1" opacity="0.9"/>
      <rect x="-2" y="5" width="4" height="14" fill="#0A0A0A" rx="1"/>
      
      <!-- Additional glow rings -->
      <circle cx="0" cy="-8" r="16" fill="none" stroke="#00FFD4" stroke-width="1" opacity="0.3"/>
      <circle cx="0" cy="-8" r="20" fill="none" stroke="#00E5FF" stroke-width="1" opacity="0.2"/>
    </g>
    
    <!-- CPU identification text -->
    <text x="0" y="50" text-anchor="middle" fill="#00FFD4" font-family="monospace" font-size="8" opacity="0.7">CRYPTO-CPU</text>
    <text x="0" y="60" text-anchor="middle" fill="#4A4A4A" font-family="monospace" font-size="6" opacity="0.6">SECURE-CHIP</text>
  </g>
  
  <!-- Corner enhancement details -->
  <g opacity="0.4">
    <!-- Corner circuit details -->
    <path d="M50,50 L80,50 L80,80" stroke="#00FFD4" stroke-width="1" fill="none"/>
    <path d="M462,50 L432,50 L432,80" stroke="#00FFD4" stroke-width="1" fill="none"/>
    <path d="M50,462 L80,462 L80,432" stroke="#00FFD4" stroke-width="1" fill="none"/>
    <path d="M462,462 L432,462 L432,432" stroke="#00FFD4" stroke-width="1" fill="none"/>
    
    <circle cx="80" cy="80" r="2" fill="#00FFD4"/>
    <circle cx="432" cy="80" r="2" fill="#00FFD4"/>
    <circle cx="80" cy="432" r="2" fill="#00FFD4"/>
    <circle cx="432" cy="432" r="2" fill="#00FFD4"/>
  </g>
</svg>