<?xml version="1.0" encoding="UTF-8"?>
<svg width="512" height="512" viewBox="0 0 512 512" xmlns="http://www.w3.org/2000/svg">
  <defs>
    <!-- Gradient definitions for glow effects -->
    <radialGradient id="cpuGradient" cx="50%" cy="50%" r="50%">
      <stop offset="0%" style="stop-color:#2E2E2E;stop-opacity:1" />
      <stop offset="70%" style="stop-color:#1A1A1A;stop-opacity:1" />
      <stop offset="100%" style="stop-color:#0A0A0A;stop-opacity:1" />
    </radialGradient>
    
    <radialGradient id="keyholeGlow" cx="50%" cy="50%" r="50%">
      <stop offset="0%" style="stop-color:#00FFD4;stop-opacity:0.8" />
      <stop offset="40%" style="stop-color:#00E5FF;stop-opacity:0.6" />
      <stop offset="80%" style="stop-color:#00FFD4;stop-opacity:0.3" />
      <stop offset="100%" style="stop-color:#00FFD4;stop-opacity:0" />
    </radialGradient>
    
    <filter id="glow">
      <feGaussianBlur stdDeviation="3" result="coloredBlur"/>
      <feMerge> 
        <feMergeNode in="coloredBlur"/>
        <feMergeNode in="SourceGraphic"/>
      </feMerge>
    </filter>
    
    <filter id="innerGlow">
      <feGaussianBlur stdDeviation="2" result="coloredBlur"/>
      <feMerge> 
        <feMergeNode in="coloredBlur"/>
        <feMergeNode in="SourceGraphic"/>
      </feMerge>
    </filter>
  </defs>
  
  <!-- Dark background -->
  <rect width="512" height="512" fill="#0A0A0A"/>
  
  <!-- Asymmetrical PCB circuit board pattern -->
  <g opacity="0.4">
    <!-- Complex asymmetrical horizontal traces -->
    <path d="M50,95 L180,95 L180,110 L320,110 L320,95 L450,95" stroke="#00FFD4" stroke-width="1.2" fill="none" opacity="0.5"/>
    <path d="M0,185 L120,185 L120,200 L200,200 L200,220 L512,220" stroke="#00FFD4" stroke-width="1" fill="none" opacity="0.4"/>
    <path d="M80,290 L160,290 L160,305 L240,305 L240,290 L380,290 L380,310 L512,310" stroke="#00FFD4" stroke-width="0.8" fill="none" opacity="0.5"/>
    <path d="M0,390 L140,390 L140,405 L260,405 L260,385 L400,385" stroke="#00FFD4" stroke-width="1.2" fill="none" opacity="0.4"/>
    
    <!-- Complex asymmetrical vertical traces -->
    <path d="M110,0 L110,80 L125,80 L125,150 L110,150 L110,280 L125,280 L125,420 L110,420 L110,512" stroke="#00FFD4" stroke-width="1" fill="none" opacity="0.5"/>
    <path d="M220,50 L220,120 L235,120 L235,180 L220,180 L220,250 L235,250 L235,350 L220,350 L220,512" stroke="#00FFD4" stroke-width="0.9" fill="none" opacity="0.4"/>
    <path d="M350,0 L350,70 L365,70 L365,140 L350,140 L350,200 L365,200 L365,300 L350,300 L350,450" stroke="#00FFD4" stroke-width="1.1" fill="none" opacity="0.5"/>
    <path d="M420,80 L420,160 L435,160 L435,240 L420,240 L420,320 L435,320 L435,380 L420,380 L420,512" stroke="#00FFD4" stroke-width="0.8" fill="none" opacity="0.4"/>
    
    <!-- PCB-style connection pads and vias -->
    <circle cx="125" cy="110" r="4" fill="#00FFD4" opacity="0.7"/>
    <circle cx="235" cy="200" r="3.5" fill="#00FFD4" opacity="0.6"/>
    <circle cx="365" cy="140" r="4.5" fill="#00FFD4" opacity="0.8"/>
    <circle cx="180" cy="305" r="3" fill="#00FFD4" opacity="0.6"/>
    <circle cx="320" cy="220" r="3.5" fill="#00FFD4" opacity="0.7"/>
    <circle cx="435" cy="320" r="4" fill="#00FFD4" opacity="0.6"/>
    <circle cx="140" cy="390" r="3.2" fill="#00FFD4" opacity="0.8"/>
    <circle cx="260" cy="405" r="3.8" fill="#00FFD4" opacity="0.5"/>
    
    <!-- Additional small PCB traces for detail -->
    <path d="M180,95 L180,125 L200,125" stroke="#00FFD4" stroke-width="0.6" fill="none" opacity="0.3"/>
    <path d="M320,95 L320,80 L340,80" stroke="#00FFD4" stroke-width="0.6" fill="none" opacity="0.3"/>
    <path d="M240,290 L240,270 L260,270 L260,285" stroke="#00FFD4" stroke-width="0.5" fill="none" opacity="0.3"/>
    <path d="M365,140 L385,140 L385,160 L405,160" stroke="#00FFD4" stroke-width="0.7" fill="none" opacity="0.4"/>
    
    <!-- PCB component footprints (small rectangles) -->
    <rect x="195" y="120" width="10" height="6" fill="none" stroke="#00FFD4" stroke-width="0.4" opacity="0.3"/>
    <rect x="335" y="75" width="8" height="10" fill="none" stroke="#00FFD4" stroke-width="0.4" opacity="0.3"/>
    <rect x="255" y="265" width="12" height="8" fill="none" stroke="#00FFD4" stroke-width="0.4" opacity="0.3"/>
    <rect x="400" y="155" width="9" height="12" fill="none" stroke="#00FFD4" stroke-width="0.4" opacity="0.3"/>
  </g>
  
  <!-- CPU chip main body -->
  <g transform="translate(256,256)">
    <!-- CPU pins/connectors -->
    <!-- Top pins -->
    <g>
      <rect x="-80" y="-100" width="8" height="20" fill="#4A4A4A" rx="2"/>
      <rect x="-60" y="-100" width="8" height="20" fill="#4A4A4A" rx="2"/>
      <rect x="-40" y="-100" width="8" height="20" fill="#4A4A4A" rx="2"/>
      <rect x="-20" y="-100" width="8" height="20" fill="#4A4A4A" rx="2"/>
      <rect x="0" y="-100" width="8" height="20" fill="#4A4A4A" rx="2"/>
      <rect x="20" y="-100" width="8" height="20" fill="#4A4A4A" rx="2"/>
      <rect x="40" y="-100" width="8" height="20" fill="#4A4A4A" rx="2"/>
      <rect x="60" y="-100" width="8" height="20" fill="#4A4A4A" rx="2"/>
    </g>
    
    <!-- Bottom pins -->
    <g>
      <rect x="-80" y="80" width="8" height="20" fill="#4A4A4A" rx="2"/>
      <rect x="-60" y="80" width="8" height="20" fill="#4A4A4A" rx="2"/>
      <rect x="-40" y="80" width="8" height="20" fill="#4A4A4A" rx="2"/>
      <rect x="-20" y="80" width="8" height="20" fill="#4A4A4A" rx="2"/>
      <rect x="0" y="80" width="8" height="20" fill="#4A4A4A" rx="2"/>
      <rect x="20" y="80" width="8" height="20" fill="#4A4A4A" rx="2"/>
      <rect x="40" y="80" width="8" height="20" fill="#4A4A4A" rx="2"/>
      <rect x="60" y="80" width="8" height="20" fill="#4A4A4A" rx="2"/>
    </g>
    
    <!-- Left pins -->
    <g>
      <rect x="-100" y="-80" width="20" height="8" fill="#4A4A4A" rx="2"/>
      <rect x="-100" y="-60" width="20" height="8" fill="#4A4A4A" rx="2"/>
      <rect x="-100" y="-40" width="20" height="8" fill="#4A4A4A" rx="2"/>
      <rect x="-100" y="-20" width="20" height="8" fill="#4A4A4A" rx="2"/>
      <rect x="-100" y="0" width="20" height="8" fill="#4A4A4A" rx="2"/>
      <rect x="-100" y="20" width="20" height="8" fill="#4A4A4A" rx="2"/>
      <rect x="-100" y="40" width="20" height="8" fill="#4A4A4A" rx="2"/>
      <rect x="-100" y="60" width="20" height="8" fill="#4A4A4A" rx="2"/>
    </g>
    
    <!-- Right pins -->
    <g>
      <rect x="80" y="-80" width="20" height="8" fill="#4A4A4A" rx="2"/>
      <rect x="80" y="-60" width="20" height="8" fill="#4A4A4A" rx="2"/>
      <rect x="80" y="-40" width="20" height="8" fill="#4A4A4A" rx="2"/>
      <rect x="80" y="-20" width="20" height="8" fill="#4A4A4A" rx="2"/>
      <rect x="80" y="0" width="20" height="8" fill="#4A4A4A" rx="2"/>
      <rect x="80" y="20" width="20" height="8" fill="#4A4A4A" rx="2"/>
      <rect x="80" y="40" width="20" height="8" fill="#4A4A4A" rx="2"/>
      <rect x="80" y="60" width="20" height="8" fill="#4A4A4A" rx="2"/>
    </g>
    
    <!-- Circuit traces connecting to pins -->
    <g opacity="0.6" stroke="#00FFD4" stroke-width="1" fill="none">
      <!-- Top traces -->
      <path d="M-76,-80 L-76,-90 L-64,-90" opacity="0.7"/>
      <path d="M-56,-80 L-56,-90 L-44,-90" opacity="0.7"/>
      <path d="M-36,-80 L-36,-90 L-24,-90" opacity="0.7"/>
      <path d="M-16,-80 L-16,-90 L-4,-90" opacity="0.7"/>
      <path d="M4,-80 L4,-90 L16,-90" opacity="0.7"/>
      <path d="M24,-80 L24,-90 L36,-90" opacity="0.7"/>
      <path d="M44,-80 L44,-90 L56,-90" opacity="0.7"/>
      <path d="M64,-80 L64,-90 L76,-90" opacity="0.7"/>
      
      <!-- Similar patterns for other sides -->
      <path d="M-80,-76 L-90,-76 L-90,-64" opacity="0.7"/>
      <path d="M-80,-56 L-90,-56 L-90,-44" opacity="0.7"/>
      <path d="M-80,-36 L-90,-36 L-90,-24" opacity="0.7"/>
      <path d="M-80,-16 L-90,-16 L-90,-4" opacity="0.7"/>
    </g>
    
    <!-- CPU main body with teal outline -->
    <rect x="-80" y="-80" width="160" height="160" fill="url(#cpuGradient)" rx="8" 
          stroke="#00FFD4" stroke-width="2" opacity="0.9" filter="url(#glow)"/>
    
    <!-- CPU surface details -->
    <rect x="-70" y="-70" width="140" height="140" fill="none" stroke="#4A4A4A" stroke-width="1" rx="4" opacity="0.7"/>
    <rect x="-60" y="-60" width="120" height="120" fill="none" stroke="#4A4A4A" stroke-width="1" rx="4" opacity="0.5"/>
    
    <!-- CPU center detail (replacing keyhole) -->
    <g opacity="0.7">
      <!-- Central processing unit detail -->
      <rect x="-25" y="-25" width="50" height="50" fill="none" stroke="#4A4A4A" stroke-width="0.8" rx="3" opacity="0.6"/>
      <rect x="-20" y="-20" width="40" height="40" fill="none" stroke="#4A4A4A" stroke-width="0.6" rx="2" opacity="0.5"/>
      <rect x="-15" y="-15" width="30" height="30" fill="none" stroke="#4A4A4A" stroke-width="0.5" rx="2" opacity="0.4"/>
      
      <!-- PCB-style internal traces -->
      <path d="M-15,-10 L15,-10 M-10,-15 L-10,15 M10,-15 L10,15 M-15,10 L15,10" 
            stroke="#00FFD4" stroke-width="0.4" opacity="0.3"/>
      
      <!-- Small internal components -->
      <rect x="-8" y="-8" width="4" height="4" fill="#4A4A4A" rx="0.5" opacity="0.8"/>
      <rect x="4" y="-8" width="4" height="4" fill="#4A4A4A" rx="0.5" opacity="0.8"/>
      <rect x="-8" y="4" width="4" height="4" fill="#4A4A4A" rx="0.5" opacity="0.8"/>
      <rect x="4" y="4" width="4" height="4" fill="#4A4A4A" rx="0.5" opacity="0.8"/>
    </g>
  </g>
  
  <!-- Corner enhancement details - asymmetrical PCB style -->
  <g opacity="0.5">
    <!-- Top-left corner PCB traces -->
    <path d="M40,40 L70,40 L70,65 L95,65" stroke="#00FFD4" stroke-width="1.2" fill="none"/>
    <path d="M25,60 L55,60 L55,80 L80,80 L80,105" stroke="#00FFD4" stroke-width="0.8" fill="none"/>
    <circle cx="70" cy="65" r="2.5" fill="#00FFD4"/>
    <circle cx="55" cy="80" r="2" fill="#00FFD4"/>
    
    <!-- Top-right corner PCB traces -->
    <path d="M472,45 L442,45 L442,70 L417,70 L417,90" stroke="#00FFD4" stroke-width="1" fill="none"/>
    <path d="M487,65 L457,65 L457,85 L432,85 L432,110" stroke="#00FFD4" stroke-width="1.1" fill="none"/>
    <circle cx="442" cy="70" r="2.8" fill="#00FFD4"/>
    <circle cx="457" cy="85" r="2.2" fill="#00FFD4"/>
    
    <!-- Bottom-left corner PCB traces -->
    <path d="M45,472 L75,472 L75,447 L100,447 L100,422" stroke="#00FFD4" stroke-width="0.9" fill="none"/>
    <path d="M30,457 L60,457 L60,437 L85,437 L85,412" stroke="#00FFD4" stroke-width="1.3" fill="none"/>
    <circle cx="75" cy="447" r="2.3" fill="#00FFD4"/>
    <circle cx="60" cy="437" r="2.7" fill="#00FFD4"/>
    
    <!-- Bottom-right corner PCB traces -->
    <path d="M467,467 L437,467 L437,442 L412,442 L412,417" stroke="#00FFD4" stroke-width="1.2" fill="none"/>
    <path d="M482,452 L452,452 L452,432 L427,432" stroke="#00FFD4" stroke-width="0.7" fill="none"/>
    <circle cx="437" cy="442" r="2.6" fill="#00FFD4"/>
    <circle cx="452" cy="432" r="2.1" fill="#00FFD4"/>
    
    <!-- Additional small PCB components in corners -->
    <rect x="65" y="60" width="8" height="5" fill="none" stroke="#00FFD4" stroke-width="0.5" opacity="0.6"/>
    <rect x="437" y="65" width="6" height="8" fill="none" stroke="#00FFD4" stroke-width="0.5" opacity="0.6"/>
    <rect x="55" y="447" width="10" height="6" fill="none" stroke="#00FFD4" stroke-width="0.5" opacity="0.6"/>
    <rect x="442" y="442" width="7" height="9" fill="none" stroke="#00FFD4" stroke-width="0.5" opacity="0.6"/>
  </g>
</svg>